<?xml version="1.0" encoding="UTF-8"?>
<svg version="1.1" xmlns="http://www.w3.org/2000/svg" width="1167" height="1089">
<path d="M0 0 C385.11 0 770.22 0 1167 0 C1167 359.37 1167 718.74 1167 1089 C781.89 1089 396.78 1089 0 1089 C0 729.63 0 370.26 0 0 Z " fill="#1B161F" transform="translate(0,0)"/>
<path d="M0 0 C20.87239676 2.04631341 44.16034963 20.28234302 60 33 C60.56912109 33.45342773 61.13824219 33.90685547 61.72460938 34.37402344 C75.49798018 45.42662874 87.49237236 57.81929903 98 72 C98.85023745 73.11980911 99.7004977 74.2396009 100.55078125 75.359375 C119.38436264 100.54737613 131.45987639 130.38730875 138 161 C138.16516113 161.74523926 138.33032227 162.49047852 138.50048828 163.25830078 C144.42987764 191.06572655 142.19147655 222.48232642 136 250 C135.69758084 251.41659501 135.39550958 252.83326434 135.09375 254.25 C133.14310092 263.19139145 130.60134897 271.56027361 127 280 C126.73815918 280.62229492 126.47631836 281.24458984 126.20654297 281.88574219 C114.86035453 308.79563856 100.23596398 331.92735674 80 353 C79.51273438 353.51449707 79.02546875 354.02899414 78.5234375 354.55908203 C58.07292896 376.09636559 31.64649369 393.25218278 4 404 C2.91976563 404.42796875 1.83953125 404.8559375 0.7265625 405.296875 C-9.28655581 409.07805254 -19.58782831 411.58171692 -30 414 C-30.77400146 414.18111328 -31.54800293 414.36222656 -32.34545898 414.54882812 C-46.27090708 417.73652776 -60.08999773 418.1886512 -74.3125 418.1875 C-75.03911835 418.18840637 -75.76573669 418.18931274 -76.51437378 418.19024658 C-89.9042393 418.18835922 -102.91676369 417.52207121 -116.0625 414.8125 C-117.68575195 414.47822998 -117.68575195 414.47822998 -119.34179688 414.13720703 C-152.00305683 407.21182804 -183.23683438 393.49226651 -209 372 C-210.02609375 371.175 -211.0521875 370.35 -212.109375 369.5 C-225.96701984 358.23602065 -238.59508286 345.5304155 -249 331 C-249.47356934 330.34370605 -249.94713867 329.68741211 -250.43505859 329.01123047 C-275.76460135 293.5231816 -291.42799023 250.64321258 -291.0625 206.8125 C-291.05798828 205.76513672 -291.05347656 204.71777344 -291.04882812 203.63867188 C-291.03720124 201.09238464 -291.02086281 198.5462254 -291 196 C-245.33844036 196.90699017 -245.33844036 196.90699017 -227.61209106 197.44070435 C-225.65090599 197.49922695 -223.68958781 197.55323263 -221.72827148 197.60717773 C-220.57270752 197.64399658 -219.41714355 197.68081543 -218.2265625 197.71875 C-217.23221191 197.74904297 -216.23786133 197.77933594 -215.21337891 197.81054688 C-213 198 -213 198 -212 199 C-211.81933442 200.72472383 -211.69968308 202.45590074 -211.60546875 204.1875 C-209.40725598 240.222105 -198.28671317 271.58642796 -173 298 C-172.32839844 298.73476563 -171.65679688 299.46953125 -170.96484375 300.2265625 C-148.81172209 323.66332298 -114.80071043 338.31642959 -82.7109375 339.23828125 C-45.91149049 339.79676342 -13.36552055 330.06904294 15 306 C15.88558594 305.26136719 16.77117187 304.52273438 17.68359375 303.76171875 C35.41664684 288.39307274 47.14338854 267.90109703 55 246 C55.36222656 244.99195313 55.72445313 243.98390625 56.09765625 242.9453125 C59.97421917 231.61382088 61.5476125 220.96842731 62 209 C62.05099854 207.8253418 62.05099854 207.8253418 62.10302734 206.62695312 C63.50323117 170.43488273 50.97373423 136.10297134 26.47216797 109.33056641 C11.20586479 92.97740108 -6.3513406 81.56699698 -27 73 C-22.19815445 58.49386602 -17.29460846 44.02280734 -11.65869141 29.81689453 C-8.80613043 22.59986633 -6.18068713 15.30363586 -3.57617188 7.99389648 C-3.25455078 7.09743408 -2.93292969 6.20097168 -2.6015625 5.27734375 C-2.31619629 4.47546631 -2.03083008 3.67358887 -1.73681641 2.84741211 C-1 1 -1 1 0 0 Z " fill="#432261" transform="translate(789,428)"/>
<path d="M0 0 C2.7245101 0.01073026 5.44836114 0.00003138 8.17285156 -0.01269531 C18.85628006 -0.02145747 29.16848369 0.58418753 39.72753906 2.26074219 C40.55479492 2.39077637 41.38205078 2.52081055 42.234375 2.65478516 C92.70956142 11.39133104 141.59836764 41.70014054 172.72753906 82.26074219 C173.14181152 82.78796875 173.55608398 83.31519531 173.98291016 83.85839844 C182.42964984 94.64120422 189.26302246 106.20113396 195.72753906 118.26074219 C196.07800293 118.90946289 196.4284668 119.55818359 196.78955078 120.2265625 C205.9758291 137.54267313 212.42788087 157.93350034 215.72753906 177.26074219 C215.89890381 178.25315918 215.89890381 178.25315918 216.07373047 179.265625 C223.98627714 228.85091746 214.82931659 280.84108609 189.72753906 324.26074219 C185.6994949 323.66951972 182.82850503 322.39003255 179.32519531 320.33886719 C178.28081299 319.73187988 177.23643066 319.12489258 176.16040039 318.49951172 C175.04818115 317.84321777 173.93596191 317.18692383 172.79003906 316.51074219 C171.62589906 315.83032804 170.46142528 315.15048465 169.29663086 314.47119141 C166.33479261 312.74126547 163.3782272 311.00255686 160.42358398 309.26037598 C157.8339517 307.73406974 155.24134659 306.21282553 152.64941406 304.69042969 C142.30787977 298.60451778 132.00418103 292.45554038 121.72753906 286.26074219 C122.9277153 282.49655308 124.27093089 278.94686457 125.97753906 275.38574219 C141.69669786 240.8406882 143.8683645 202.12681956 130.72753906 166.26074219 C123.61188653 148.22026193 113.20730987 133.0856276 99.72753906 119.26074219 C99.03660156 118.49632812 98.34566406 117.73191406 97.63378906 116.94433594 C86.61844079 105.10283654 72.36490555 96.80844964 57.72753906 90.26074219 C57.12264648 89.98004883 56.51775391 89.69935547 55.89453125 89.41015625 C45.17843449 84.47365807 34.29521395 82.2173955 22.72753906 80.26074219 C21.77145752 80.08422119 20.81537598 79.9077002 19.83032227 79.72583008 C3.81936855 77.32588777 -13.53892138 78.63417513 -29.27246094 82.26074219 C-30.52414062 82.52757812 -31.77582031 82.79441406 -33.06542969 83.06933594 C-66.90218635 91.09174927 -96.13703941 114.10233688 -114.52294922 143.24267578 C-121.31093139 154.34264024 -126.23210704 165.89538002 -130.27246094 178.26074219 C-137.04846647 176.79829495 -143.755516 175.14586832 -150.45996094 173.38574219 C-151.4817041 173.11818115 -152.50344727 172.85062012 -153.55615234 172.57495117 C-159.83304708 170.92337248 -166.08851027 169.216064 -172.31933594 167.39746094 C-175.71705762 166.41033533 -179.12683816 165.46952242 -182.53808594 164.53027344 C-183.6648877 164.21888428 -184.79168945 163.90749512 -185.95263672 163.58666992 C-188.21576832 162.96194295 -190.47974433 162.3402654 -192.74462891 161.72192383 C-193.7876416 161.43309326 -194.8306543 161.1442627 -195.90527344 160.84667969 C-197.31123779 160.46068604 -197.31123779 160.46068604 -198.74560547 160.06689453 C-201.07787766 159.32282083 -203.12358756 158.42374347 -205.27246094 157.26074219 C-197.26353337 109.15525505 -159.50556604 65.50047165 -121.15917969 37.95996094 C-99.57728134 22.77109928 -75.01095616 11.80510832 -49.36035156 5.75585938 C-47.48755574 5.31174923 -45.62163834 4.8388653 -43.75683594 4.36230469 C-29.23290627 0.74920888 -14.89420224 -0.06957407 0 0 Z " fill="#A23FFE" transform="translate(509.2724609375,340.7392578125)"/>
<path d="M0 0 C20.87239676 2.04631341 44.16034963 20.28234302 60 33 C60.56912109 33.45342773 61.13824219 33.90685547 61.72460938 34.37402344 C75.49798018 45.42662874 87.49237236 57.81929903 98 72 C98.85023745 73.11980911 99.7004977 74.2396009 100.55078125 75.359375 C121.81244993 103.79469611 140.20848928 143.93446575 140 180 C122.97734571 182.13082934 105.9466742 184.16699041 88.88726807 185.98254395 C87.2209176 186.15994361 85.55469625 186.33856067 83.88861084 186.51843262 C81.53812271 186.77149042 79.18714805 187.01938035 76.8359375 187.265625 C76.14552368 187.34043091 75.45510986 187.41523682 74.74377441 187.49230957 C70.47878034 187.93069335 66.28593752 188.06534925 62 188 C61.86537354 187.13387085 61.86537354 187.13387085 61.72802734 186.25024414 C55.6857873 148.26238753 38.15136678 114.68061426 6.8125 91.25 C-3.55701524 83.73961459 -15.1951847 77.89774252 -27 73 C-22.19815445 58.49386602 -17.29460846 44.02280734 -11.65869141 29.81689453 C-8.80613043 22.59986633 -6.18068713 15.30363586 -3.57617188 7.99389648 C-3.25455078 7.09743408 -2.93292969 6.20097168 -2.6015625 5.27734375 C-2.31619629 4.47546631 -2.03083008 3.67358887 -1.73681641 2.84741211 C-1 1 -1 1 0 0 Z " fill="#A23FFD" transform="translate(789,428)"/>
<path d="M0 0 C1.11632812 0.36351562 2.23265625 0.72703125 3.3828125 1.1015625 C13.99461617 4.52309313 24.66268784 7.59984251 35.4296875 10.4921875 C43.52426948 12.66986003 51.57545583 14.99915712 59.63037109 17.31835938 C63.18966137 18.34221456 66.75106429 19.35863814 70.3125 20.375 C72.20833333 20.91666667 74.10416667 21.45833333 76 22 C75.79503906 23.12277344 75.59007812 24.24554687 75.37890625 25.40234375 C75.10661417 26.91403429 74.83448766 28.42575466 74.5625 29.9375 C74.36043945 31.04061523 74.36043945 31.04061523 74.15429688 32.16601562 C67.72169682 68.0944403 73.47253687 105.29217292 94.2421875 135.82617188 C96.14295187 138.4736651 98.11635581 141.03614863 100.15234375 143.58203125 C101.75342354 145.67731326 102.93206144 147.60133171 104 150 C97.04974228 156.53036934 90.05314175 162.87989339 82.61328125 168.85546875 C80.00152377 170.99874956 77.49634698 173.2238033 75 175.5 C70.73284888 179.38964644 66.3083031 183.03143415 61.8125 186.65234375 C57.85858962 189.95276061 54.13523633 193.47623985 50.41015625 197.03125 C48.13202149 198.89215749 46.8694351 199.62717317 44 200 C19.66574305 172.19681706 3.8495041 138.60105381 -3.8125 102.5625 C-4.01963623 101.59223877 -4.22677246 100.62197754 -4.44018555 99.62231445 C-7.20682407 85.92436416 -7.27459572 72.1713578 -7.3125 58.25 C-7.31545074 57.29656708 -7.31840149 56.34313416 -7.32144165 55.36080933 C-7.33187987 40.52560505 -6.47056879 26.48130486 -3 12 C-2.76047607 10.9478833 -2.76047607 10.9478833 -2.51611328 9.87451172 C-1.7598243 6.55784374 -0.94593718 3.26778299 0 0 Z " fill="#432262" transform="translate(303,497)"/>
<path d="M0 0 C1.12775345 0.00212242 1.12775345 0.00212242 2.27828979 0.00428772 C4.6829626 0.0098916 7.08754277 0.02244468 9.4921875 0.03515625 C11.12109241 0.04017075 12.74999877 0.04473375 14.37890625 0.04882812 C18.37506452 0.05901201 22.37102215 0.07858653 26.3671875 0.09765625 C26.3671875 10.98765625 26.3671875 21.87765625 26.3671875 33.09765625 C21.5645133 31.8969877 21.12833876 30.90047971 18.5546875 26.84765625 C17.92949219 25.89375 17.30429688 24.93984375 16.66015625 23.95703125 C15.20496331 20.73890063 15.28920479 19.39784912 16.3671875 16.09765625 C15.7071875 16.09765625 15.0471875 16.09765625 14.3671875 16.09765625 C14.3671875 15.43765625 14.3671875 14.77765625 14.3671875 14.09765625 C13.7071875 14.09765625 13.0471875 14.09765625 12.3671875 14.09765625 C12.0371875 14.75765625 11.7071875 15.41765625 11.3671875 16.09765625 C11.0371875 14.77765625 10.7071875 13.45765625 10.3671875 12.09765625 C11.0271875 12.09765625 11.6871875 12.09765625 12.3671875 12.09765625 C12.3671875 11.43765625 12.3671875 10.77765625 12.3671875 10.09765625 C11.0471875 11.08765625 9.7271875 12.07765625 8.3671875 13.09765625 C8.3671875 12.10765625 8.3671875 11.11765625 8.3671875 10.09765625 C7.3771875 10.42765625 6.3871875 10.75765625 5.3671875 11.09765625 C4.7071875 10.43765625 4.0471875 9.77765625 3.3671875 9.09765625 C3.7421875 6.97265625 3.7421875 6.97265625 4.3671875 5.09765625 C3.7071875 5.09765625 3.0471875 5.09765625 2.3671875 5.09765625 C1.7071875 5.75765625 1.0471875 6.41765625 0.3671875 7.09765625 C-3.03196225 5.96460633 -3.68535701 4.9724715 -5.6328125 2.09765625 C-6.9528125 2.42765625 -8.2728125 2.75765625 -9.6328125 3.09765625 C-9.6328125 2.43765625 -9.6328125 1.77765625 -9.6328125 1.09765625 C-6.56686656 -0.43531672 -3.36169397 -0.0236583 0 0 Z " fill="#792C95" transform="translate(1140.6328125,-0.09765625)"/>
<path d="M0 0 C0.33 0 0.66 0 1 0 C1 1.65 1 3.3 1 5 C1.99 5 2.98 5 4 5 C6.54630448 7.7777867 8.4705003 10.55862568 10 14 C9.01 14.33 8.02 14.66 7 15 C6.67 15.66 6.34 16.32 6 17 C6.66 17 7.32 17 8 17 C8.33 16.34 8.66 15.68 9 15 C9.33 16.32 9.66 17.64 10 19 C10.33 17.68 10.66 16.36 11 15 C16.75 15.875 16.75 15.875 19 17 C19 17.66 19 18.32 19 19 C19.78375 19.12375 20.5675 19.2475 21.375 19.375 C24 20 24 20 26 22 C25.01 22.495 25.01 22.495 24 23 C24 23.66 24 24.32 24 25 C13.77 25 3.54 25 -7 25 C-7 19.72 -7 14.44 -7 9 C-6.34 9 -5.68 9 -5 9 C-4.67 8.34 -4.34 7.68 -4 7 C-4.66 6.67 -5.32 6.34 -6 6 C-5.34 6 -4.68 6 -4 6 C-4 5.34 -4 4.68 -4 4 C-2.68 4 -1.36 4 0 4 C-0.33 3.01 -0.66 2.02 -1 1 C-0.67 0.67 -0.34 0.34 0 0 Z " fill="#8C8360" transform="translate(7,1064)"/>
<path d="M0 0 C4.04184662 -0.05405144 8.08296691 -0.09370107 12.125 -0.125 C13.83816406 -0.15013672 13.83816406 -0.15013672 15.5859375 -0.17578125 C16.69453125 -0.18222656 17.803125 -0.18867187 18.9453125 -0.1953125 C20.46922607 -0.21102295 20.46922607 -0.21102295 22.02392578 -0.22705078 C25.28288429 0.02158182 27.95115207 0.85121636 31 2 C28.61801792 3.19099104 26.24171054 4.34197368 23.8125 5.4375 C20.70884971 6.74724316 20.70884971 6.74724316 20 10 C20.66 10.33 21.32 10.66 22 11 C20.07141188 13.00931971 18.133102 15.00727269 16.1875 17 C15.64029297 17.57234375 15.09308594 18.1446875 14.52929688 18.734375 C13.07608846 20.21400538 11.54183626 21.61296658 10 23 C9.01 23 8.02 23 7 23 C6.67 19.37 6.34 15.74 6 12 C5.67 12.66 5.34 13.32 5 14 C3.35 14 1.7 14 0 14 C0 9.38 0 4.76 0 0 Z " fill="#1D1D1D" transform="translate(0,0)"/>
<path d="M0 0 C0.66 0.33 1.32 0.66 2 1 C2 10.24 2 19.48 2 29 C-1.3 29 -4.6 29 -8 29 C-8.66 28.01 -9.32 27.02 -10 26 C-9.01 25.67 -8.02 25.34 -7 25 C-11.91582077 23.48046291 -11.91582077 23.48046291 -17 23 C-17.375 20.3125 -17.375 20.3125 -17 17 C-14.76844894 14.39652377 -12.06821093 12.53410547 -9 11 C-8.34 10.62875 -7.68 10.2575 -7 9.875 C-6.34 9.58625 -5.68 9.2975 -5 9 C-4.34 9.33 -3.68 9.66 -3 10 C-3 9.34 -3 8.68 -3 8 C-4.65 7.67 -6.3 7.34 -8 7 C-7.54625 6.566875 -7.0925 6.13375 -6.625 5.6875 C-4.79975666 3.89201658 -4.79975666 3.89201658 -3 1 C-2.01 0.67 -1.02 0.34 0 0 Z " fill="#635275" transform="translate(1165,1060)"/>
<path d="M0 0 C1.98 0 3.96 0 6 0 C6 10.89 6 21.78 6 33 C2 32 2 32 0.078125 29.49609375 C-0.52515625 28.48675781 -1.1284375 27.47742188 -1.75 26.4375 C-2.36359375 25.42558594 -2.9771875 24.41367187 -3.609375 23.37109375 C-4.06828125 22.58863281 -4.5271875 21.80617188 -5 21 C-3 18 -3 18 0 17 C-2.475 16.01 -2.475 16.01 -5 15 C-5 13.35 -5 11.7 -5 10 C-4.34 10 -3.68 10 -3 10 C-2.34 8.35 -1.68 6.7 -1 5 C-0.34 5.33 0.32 5.66 1 6 C1.33 5.34 1.66 4.68 2 4 C1.34 4 0.68 4 0 4 C0 2.68 0 1.36 0 0 Z " fill="#69724F" transform="translate(1161,0)"/>
<path d="M0 0 C2.64 0 5.28 0 8 0 C8 0.99 8 1.98 8 3 C8.99 2.34 9.98 1.68 11 1 C11.33 1.66 11.66 2.32 12 3 C11.67 3.66 11.34 4.32 11 5 C10.01 5 9.02 5 8 5 C8 5.66 8 6.32 8 7 C7.01 7 6.02 7 5 7 C5 7.99 5 8.98 5 10 C6.32 10.33 7.64 10.66 9 11 C8.67 12.32 8.34 13.64 8 15 C9.32 15 10.64 15 12 15 C12.33 13.68 12.66 12.36 13 11 C15.64 11 18.28 11 21 11 C17.33133644 15.5142775 13.66465192 19.50151106 9 23 C8.34 23 7.68 23 7 23 C6.67 19.37 6.34 15.74 6 12 C5.67 12.66 5.34 13.32 5 14 C3.35 14 1.7 14 0 14 C0 9.38 0 4.76 0 0 Z " fill="#88637C" transform="translate(0,0)"/>
<path d="M0 0 C2.31 0.33 4.62 0.66 7 1 C7 6.61 7 12.22 7 18 C5.39125 18.061875 3.7825 18.12375 2.125 18.1875 C1.22007813 18.22230469 0.31515625 18.25710938 -0.6171875 18.29296875 C-1.79667969 18.14794922 -1.79667969 18.14794922 -3 18 C-3.66 17.01 -4.32 16.02 -5 15 C-4.01 14.67 -3.02 14.34 -2 14 C-2.57344937 11.13275314 -2.8614515 10.1385485 -5 8 C-3.68 8 -2.36 8 -1 8 C1.2773501 5.18490007 1.2773501 5.18490007 1 2 C0.34 1.67 -0.32 1.34 -1 1 C-0.67 0.67 -0.34 0.34 0 0 Z " fill="#424245" transform="translate(1160,1071)"/>
<path d="M0 0 C0.99 0.66 1.98 1.32 3 2 C2.33333333 4.66666667 1.66666667 7.33333333 1 10 C1.99 10.33 2.98 10.66 4 11 C3.01 11.495 3.01 11.495 2 12 C2.33 12.99 2.66 13.98 3 15 C-0.96 15 -4.92 15 -9 15 C-9 10.71 -9 6.42 -9 2 C-8.01 2.33 -7.02 2.66 -6 3 C-5.01 2.34 -4.02 1.68 -3 1 C-2.01 0.67 -1.02 0.34 0 0 Z " fill="#242424" transform="translate(9,1074)"/>
<path d="M0 0 C5.75 0.875 5.75 0.875 8 2 C8 2.66 8 3.32 8 4 C8.78375 4.12375 9.5675 4.2475 10.375 4.375 C13 5 13 5 15 7 C14.01 7.495 14.01 7.495 13 8 C13 8.66 13 9.32 13 10 C7.39 10 1.78 10 -4 10 C-4.33 9.34 -4.66 8.68 -5 8 C-4.34 7.34 -3.68 6.68 -3 6 C-0.63500646 3.33045959 -0.63500646 3.33045959 0 0 Z " fill="#5C715C" transform="translate(18,1079)"/>
<path d="M0 0 C2 2 2 2 2 5 C1.67 5.99 1.34 6.98 1 8 C-2.56045177 9.18681726 -5.43808337 9.09689832 -9.1875 9.0625 C-10.45980469 9.05347656 -11.73210937 9.04445313 -13.04296875 9.03515625 C-14.50669922 9.01775391 -14.50669922 9.01775391 -16 9 C-15 6 -15 6 -13.14453125 4.90234375 C-12.37496094 4.58394531 -11.60539062 4.26554687 -10.8125 3.9375 C-9.60207031 3.43283203 -9.60207031 3.43283203 -8.3671875 2.91796875 C-5.60618526 1.84728306 -2.83049069 0.87092021 0 0 Z " fill="#6B6493" transform="translate(1146,1080)"/>
<path d="M0 0 C0.33 0 0.66 0 1 0 C1 5.61 1 11.22 1 17 C-3 16 -3 16 -4.75 14.25 C-6.21079991 11.62056017 -6.24687966 9.9625559 -6 7 C-5.34 6.67 -4.68 6.34 -4 6 C-4 5.01 -4 4.02 -4 3 C-3.01 2.34 -2.02 1.68 -1 1 C-0.67 0.67 -0.34 0.34 0 0 Z " fill="#3F4367" transform="translate(1166,16)"/>
<path d="M0 0 C1.15371094 -0.01417969 2.30742188 -0.02835937 3.49609375 -0.04296875 C6.5625 0.1875 6.5625 0.1875 9.5625 2.1875 C9.5625 4.21200921 8.96783225 6.21150526 8.5625 8.1875 C7.5725 7.8575 6.5825 7.5275 5.5625 7.1875 C5.5625 6.5275 5.5625 5.8675 5.5625 5.1875 C4.9025 5.1875 4.2425 5.1875 3.5625 5.1875 C2.9025 5.8475 2.2425 6.5075 1.5625 7.1875 C-1.83664975 6.05445008 -2.49004451 5.06231525 -4.4375 2.1875 C-5.7575 2.5175 -7.0775 2.8475 -8.4375 3.1875 C-8.4375 2.5275 -8.4375 1.8675 -8.4375 1.1875 C-5.60362485 -0.22943757 -3.15720627 0.0175987 0 0 Z " fill="#515C8B" transform="translate(1139.4375,-0.1875)"/>
<path d="M0 0 C0.98226563 0.07863281 1.96453125 0.15726563 2.9765625 0.23828125 C3.76804687 0.38652344 4.55953125 0.53476563 5.375 0.6875 C5.705 1.3475 6.035 2.0075 6.375 2.6875 C5.859375 2.790625 5.34375 2.89375 4.8125 3 C1.51473565 3.93013866 -1.49133332 5.30145512 -4.625 6.6875 C-4.295 5.3675 -3.965 4.0475 -3.625 2.6875 C-4.285 2.6875 -4.945 2.6875 -5.625 2.6875 C-5.625 3.3475 -5.625 4.0075 -5.625 4.6875 C-6.285 4.6875 -6.945 4.6875 -7.625 4.6875 C-6.74285113 7.56964887 -6.74285113 7.56964887 -5.625 9.6875 C-8.265 9.6875 -10.905 9.6875 -13.625 9.6875 C-13.955 8.6975 -14.285 7.7075 -14.625 6.6875 C-12.645 6.3575 -10.665 6.0275 -8.625 5.6875 C-8.955 4.6975 -9.285 3.7075 -9.625 2.6875 C-7.6418112 -1.27887759 -3.84777597 -0.34010685 0 0 Z " fill="#705261" transform="translate(24.625,0.3125)"/>
<path d="M0 0 C2.475 0.99 2.475 0.99 5 2 C5 2.66 5 3.32 5 4 C4.67 4.33 4.34 4.66 4 5 C4.33 5 4.66 5 5 5 C4.67 7.97 4.34 10.94 4 14 C3.01 14.33 2.02 14.66 1 15 C1.33 15.99 1.66 16.98 2 18 C1.01 17.67 0.02 17.34 -1 17 C-1.02684679 14.35409986 -1.04676357 11.70846904 -1.0625 9.0625 C-1.07087891 8.30775391 -1.07925781 7.55300781 -1.08789062 6.77539062 C-1.09652441 4.85005687 -1.05224333 2.92464419 -1 1 C-0.67 0.67 -0.34 0.34 0 0 Z " fill="#515C56" transform="translate(1,15)"/>
<path d="M0 0 C1.9375 0.6875 1.9375 0.6875 4 2 C5.09809194 5.29427581 5.11196276 6.66411172 4 10 C1.9375 10.6875 1.9375 10.6875 0 11 C0.33 11.99 0.66 12.98 1 14 C0.01 14.99 -0.98 15.98 -2 17 C-3.32 15.35 -4.64 13.7 -6 12 C-4 9 -4 9 -1 8 C-1.66 7.01 -2.32 6.02 -3 5 C-2.01 5 -1.02 5 0 5 C0 4.34 0 3.68 0 3 C0 2.01 0 1.02 0 0 Z " fill="#3E7949" transform="translate(1162,9)"/>
<path d="M0 0 C2.64 0 5.28 0 8 0 C8 0.99 8 1.98 8 3 C8.99 2.34 9.98 1.68 11 1 C11.33 1.66 11.66 2.32 12 3 C11.67 3.66 11.34 4.32 11 5 C10.01 5 9.02 5 8 5 C8 5.66 8 6.32 8 7 C6.68 6.67 5.36 6.34 4 6 C3.67 6.99 3.34 7.98 3 9 C2.01 9 1.02 9 0 9 C0 6.03 0 3.06 0 0 Z " fill="#474D4D" transform="translate(0,0)"/>
<path d="M0 0 C0.99 0.66 1.98 1.32 3 2 C2.44295272 5.23087421 1.66812465 7.02361137 -1 9 C-2.32 9 -3.64 9 -5 9 C-5.33 8.34 -5.66 7.68 -6 7 C-6.99 7 -7.98 7 -9 7 C-9 5.35 -9 3.7 -9 2 C-8.01 2.33 -7.02 2.66 -6 3 C-5.01 2.34 -4.02 1.68 -3 1 C-2.01 0.67 -1.02 0.34 0 0 Z " fill="#203118" transform="translate(9,1074)"/>
<path d="M0 0 C0.66 0.33 1.32 0.66 2 1 C2 4.63 2 8.26 2 12 C0.68 12 -0.64 12 -2 12 C-1.67 10.68 -1.34 9.36 -1 8 C-3.31 7.67 -5.62 7.34 -8 7 C-7.54625 6.566875 -7.0925 6.13375 -6.625 5.6875 C-4.79975666 3.89201658 -4.79975666 3.89201658 -3 1 C-2.01 0.67 -1.02 0.34 0 0 Z " fill="#203918" transform="translate(1165,1060)"/>
<path d="M0 0 C2.625 -0.1875 2.625 -0.1875 5 0 C5 1.32 5 2.64 5 4 C5.66 4 6.32 4 7 4 C6.67 5.32 6.34 6.64 6 8 C5.67 7.34 5.34 6.68 5 6 C4.34 6.66 3.68 7.32 3 8 C0.875 7.625 0.875 7.625 -1 7 C-1 6.01 -1 5.02 -1 4 C-1.33 4.66 -1.66 5.32 -2 6 C-2.99 5.67 -3.98 5.34 -5 5 C-4.34 3.68 -3.68 2.36 -3 1 C-2.67 1.66 -2.34 2.32 -2 3 C-1.34 2.01 -0.68 1.02 0 0 Z " fill="#747D6B" transform="translate(1156,0)"/>
<path d="M0 0 C0.33 0 0.66 0 1 0 C0.979375 0.804375 0.95875 1.60875 0.9375 2.4375 C0.70366379 4.93354885 0.70366379 4.93354885 2 6 C2 9 2 9 -0.375 11.625 C-3 14 -3 14 -5 15 C-5 14.34 -5 13.68 -5 13 C-5.66 12.67 -6.32 12.34 -7 12 C-7 11.01 -7 10.02 -7 9 C-6.34 9 -5.68 9 -5 9 C-4.67 8.34 -4.34 7.68 -4 7 C-4.66 6.67 -5.32 6.34 -6 6 C-5.34 6 -4.68 6 -4 6 C-4 5.34 -4 4.68 -4 4 C-2.68 4 -1.36 4 0 4 C-0.33 3.01 -0.66 2.02 -1 1 C-0.67 0.67 -0.34 0.34 0 0 Z " fill="#6B4393" transform="translate(7,1064)"/>
<path d="M0 0 C2.33944736 0.28730055 4.6739143 0.61936779 7 1 C7 1.66 7 2.32 7 3 C6.34 3.66 5.68 4.32 5 5 C5.33 5.66 5.66 6.32 6 7 C2.7 7 -0.6 7 -4 7 C-3.34 6.67 -2.68 6.34 -2 6 C-1.62690101 4.34178227 -1.29299023 2.67422986 -1 1 C-0.67 0.67 -0.34 0.34 0 0 Z " fill="#3A1F3F" transform="translate(1151,1082)"/>
<path d="M0 0 C5.75 0.875 5.75 0.875 8 2 C8 3.32 8 4.64 8 6 C1.25 7.125 1.25 7.125 -1 6 C-0.67 4.02 -0.34 2.04 0 0 Z " fill="#573D57" transform="translate(18,1079)"/>
<path d="M0 0 C2.64 0 5.28 0 8 0 C7.04578192 1.14926266 6.08647955 2.29430541 5.125 3.4375 C4.59132813 4.07558594 4.05765625 4.71367187 3.5078125 5.37109375 C2 7 2 7 0 8 C-0.33 7.34 -0.66 6.68 -1 6 C-3.01669827 4.86649466 -3.01669827 4.86649466 -5 4 C-3.68 4 -2.36 4 -1 4 C-0.67 2.68 -0.34 1.36 0 0 Z M-3 9 C-2.01 9.495 -2.01 9.495 -1 10 C-1.99 10.495 -1.99 10.495 -3 11 C-3 10.34 -3 9.68 -3 9 Z " fill="#373C68" transform="translate(13,11)"/>
<path d="M0 0 C3.3 0 6.6 0 10 0 C10 0.99 10 1.98 10 3 C9.01 2.67 8.02 2.34 7 2 C7 2.66 7 3.32 7 4 C7.66 4 8.32 4 9 4 C9.33 5.65 9.66 7.3 10 9 C5.25 8.125 5.25 8.125 3 7 C2.67 6.01 2.34 5.02 2 4 C1.34 3.67 0.68 3.34 0 3 C0 2.01 0 1.02 0 0 Z " fill="#001F0A" transform="translate(1146,0)"/>
<path d="M0 0 C3.63 0 7.26 0 11 0 C10.01 0.33 9.02 0.66 8 1 C8 2.65 8 4.3 8 6 C5.69 6.33 3.38 6.66 1 7 C1.66 6.67 2.32 6.34 3 6 C2.67 4.68 2.34 3.36 2 2 C1.34 2.66 0.68 3.32 0 4 C0 2.68 0 1.36 0 0 Z " fill="#051C34" transform="translate(8,0)"/>
<path d="M0 0 C2.52259061 1.97420135 2.9929808 2.96745642 3.6875 6.1875 C3.790625 7.115625 3.89375 8.04375 4 9 C3.01 9 2.02 9 1 9 C-0.67099977 9.31088368 -2.33871537 9.64080332 -4 10 C-4 8.35 -4 6.7 -4 5 C-3.34 5 -2.68 5 -2 5 C-1.34 3.35 -0.68 1.7 0 0 Z " fill="#174105" transform="translate(1160,5)"/>
<path d="M0 0 C0.66 2.97 1.32 5.94 2 9 C0.02 9.99 0.02 9.99 -2 11 C-2 7 -2 7 -1 6 C-1.639375 5.855625 -2.27875 5.71125 -2.9375 5.5625 C-5 5 -5 5 -6 4 C-6 3.34 -6 2.68 -6 2 C-3 0 -3 0 0 0 Z " fill="#070724" transform="translate(6,12)"/>
<path d="M0 0 C4.75 0.75 4.75 0.75 7 3 C6.01 3.495 6.01 3.495 5 4 C5 4.66 5 5.32 5 6 C1.7 6 -1.6 6 -5 6 C-2 4 -2 4 0 3 C0 2.01 0 1.02 0 0 Z " fill="#698E78" transform="translate(26,1083)"/>
<path d="M0 0 C0.99 0.33 1.98 0.66 3 1 C3 1.66 3 2.32 3 3 C4.32 3 5.64 3 7 3 C7.33 2.34 7.66 1.68 8 1 C8 2.65 8 4.3 8 6 C7.01 6 6.02 6 5 6 C4.01 6.66 3.02 7.32 2 8 C1.34 7.67 0.68 7.34 0 7 C0.99 6.67 1.98 6.34 3 6 C1.68 5.67 0.36 5.34 -1 5 C-0.67 3.35 -0.34 1.7 0 0 Z " fill="#9D96A5" transform="translate(1,1080)"/>
<path d="M0 0 C0.68707555 2.49064888 1 4.37886292 1 7 C0.34 7.66 -0.32 8.32 -1 9 C-1.99 9 -2.98 9 -4 9 C-3.67 8.01 -3.34 7.02 -3 6 C-3.66 5.67 -4.32 5.34 -5 5 C-5.625 2.9375 -5.625 2.9375 -6 1 C-3.03 1.495 -3.03 1.495 0 2 C0 1.34 0 0.68 0 0 Z " fill="#C39D9D" transform="translate(15,1079)"/>
<path d="M0 0 C-0.33 0.66 -0.66 1.32 -1 2 C-0.60061233 4.09821215 -0.60061233 4.09821215 0 6 C-1.32 6 -2.64 6 -4 6 C-4 5.34 -4 4.68 -4 4 C-5.65 3.67 -7.3 3.34 -9 3 C-9 2.34 -9 1.68 -9 1 C-5.92677456 0.08941469 -3.19902639 -0.08886184 0 0 Z " fill="#878796" transform="translate(1149,1)"/>
<path d="M0 0 C0.99 0.66 1.98 1.32 3 2 C2.67 3.32 2.34 4.64 2 6 C0.35 6.33 -1.3 6.66 -3 7 C-3.33 5.68 -3.66 4.36 -4 3 C-2.68 2.01 -1.36 1.02 0 0 Z " fill="#101829" transform="translate(9,1074)"/>
<path d="M0 0 C0.66 0.33 1.32 0.66 2 1 C2 2.32 2 3.64 2 5 C0.35 4.67 -1.3 4.34 -3 4 C-3 5.32 -3 6.64 -3 8 C-4.65 7.67 -6.3 7.34 -8 7 C-7.54625 6.566875 -7.0925 6.13375 -6.625 5.6875 C-4.79975666 3.89201658 -4.79975666 3.89201658 -3 1 C-2.01 0.67 -1.02 0.34 0 0 Z " fill="#94ACA4" transform="translate(1165,1060)"/>
<path d="M0 0 C0.66 0.66 1.32 1.32 2 2 C0.35 2 -1.3 2 -3 2 C-3 3.32 -3 4.64 -3 6 C-3.66 6 -4.32 6 -5 6 C-5 6.66 -5 7.32 -5 8 C-5.66 8 -6.32 8 -7 8 C-7 7.01 -7 6.02 -7 5 C-7.66 4.67 -8.32 4.34 -9 4 C-3.26833631 0.33810376 -3.26833631 0.33810376 0 0 Z " fill="#837B8C" transform="translate(1146,1080)"/>
<path d="M0 0 C2 1 2 1 4 4 C1.8614515 6.1385485 0.86724686 6.42655063 -2 7 C-2.66 6.01 -3.32 5.02 -4 4 C-3.01 3.67 -2.02 3.34 -1 3 C-0.67 2.01 -0.34 1.02 0 0 Z " fill="#767F5B" transform="translate(1159,1082)"/>
<path d="M0 0 C1.32 0.66 2.64 1.32 4 2 C3.34 3.98 2.68 5.96 2 8 C1.01 8 0.02 8 -1 8 C-1 7.34 -1 6.68 -1 6 C-1.66 6 -2.32 6 -3 6 C-2.67 5.01 -2.34 4.02 -2 3 C-1.34 2.67 -0.68 2.34 0 2 C0 1.34 0 0.68 0 0 Z " fill="#001B1B" transform="translate(16,1075)"/>
<path d="M0 0 C2.475 0.99 2.475 0.99 5 2 C5 2.66 5 3.32 5 4 C4.34 4 3.68 4 3 4 C2.67 5.32 2.34 6.64 2 8 C1.01 8 0.02 8 -1 8 C-1.04241723 5.66705225 -1.04092937 3.33297433 -1 1 C-0.67 0.67 -0.34 0.34 0 0 Z " fill="#767648" transform="translate(1,15)"/>
<path d="M0 0 C1.98 0.66 3.96 1.32 6 2 C5.67 2.99 5.34 3.98 5 5 C4.34 5 3.68 5 3 5 C2.67 5.99 2.34 6.98 2 8 C1.34 8 0.68 8 0 8 C0 5.36 0 2.72 0 0 Z " fill="#64765B" transform="translate(7,15)"/>
<path d="M0 0 C1.32 0 2.64 0 4 0 C4 1.65 4 3.3 4 5 C2.02 5 0.04 5 -2 5 C-2 4.01 -2 3.02 -2 2 C-1.34 2 -0.68 2 0 2 C0 1.34 0 0.68 0 0 Z " fill="#5E387A" transform="translate(1163,1084)"/>
<path d="M0 0 C1.98 0.66 3.96 1.32 6 2 C5.67 2.99 5.34 3.98 5 5 C4.071875 4.835 3.14375 4.67 2.1875 4.5 C-0.95621353 3.92251612 -0.95621353 3.92251612 -4 4 C-2.68 2.68 -1.36 1.36 0 0 Z " fill="#89B07F" transform="translate(1152,1079)"/>
<path d="M0 0 C0.99 0 1.98 0 3 0 C3 3.3 3 6.6 3 10 C2.34 9.67 1.68 9.34 1 9 C1 7.68 1 6.36 1 5 C0.01 4.67 -0.98 4.34 -2 4 C-1.01 3.67 -0.02 3.34 1 3 C0.67 2.01 0.34 1.02 0 0 Z M-1 9 C-0.34 9.66 0.32 10.32 1 11 C0.01 10.67 -0.98 10.34 -2 10 C-1.67 9.67 -1.34 9.34 -1 9 Z " fill="#001E33" transform="translate(1146,1078)"/>
<path d="M0 0 C0.99 0.33 1.98 0.66 3 1 C3 1.66 3 2.32 3 3 C3.31478446 4.33783393 3.64587656 5.67203709 4 7 C3.01 6.34 2.02 5.68 1 5 C-0.32 5 -1.64 5 -3 5 C-3.33 3.68 -3.66 2.36 -4 1 C-2.68 1.33 -1.36 1.66 0 2 C0 1.34 0 0.68 0 0 Z " fill="#1E5B0A" transform="translate(8,5)"/>
<path d="M0 0 C2 1 2 1 3 2 C3.99 2 4.98 2 6 2 C5.67 2.99 5.34 3.98 5 5 C4.01 5 3.02 5 2 5 C2 5.66 2 6.32 2 7 C0.68 6.34 -0.64 5.68 -2 5 C-1.34 3.35 -0.68 1.7 0 0 Z " fill="#CC7ACC" transform="translate(6,0)"/>
<path d="M0 0 C1.32 0.33 2.64 0.66 4 1 C4.33 2.32 4.66 3.64 5 5 C2.50935112 5.68707555 0.62113708 6 -2 6 C-2 5.34 -2 4.68 -2 4 C-1.34 4 -0.68 4 0 4 C0 2.68 0 1.36 0 0 Z " fill="#556A4A" transform="translate(1143,1082)"/>
<path d="M0 0 C2.99332739 0.9977758 3.94766315 1.7522025 6 4 C5.01 5.485 5.01 5.485 4 7 C2.66666667 7 1.33333333 7 0 7 C0 4.69 0 2.38 0 0 Z " fill="#554A9F" transform="translate(0,1058)"/>
<path d="M0 0 C1.98 0 3.96 0 6 0 C6 1.32 6 2.64 6 4 C4.02 4 2.04 4 0 4 C0 2.68 0 1.36 0 0 Z " fill="#351F55" transform="translate(1161,0)"/>
<path d="M0 0 C-0.66 1.65 -1.32 3.3 -2 5 C-2.33 4.01 -2.66 3.02 -3 2 C-3.99 2.33 -4.98 2.66 -6 3 C-6.66 2.34 -7.32 1.68 -8 1 C-4.93251126 -0.86240388 -3.40254489 -1.2151946 0 0 Z " fill="#585858" transform="translate(1152,8)"/>
<path d="M0 0 C2.31 0.66 4.62 1.32 7 2 C3.41247258 3.86551426 -0.27812193 5.42535928 -4 7 C-3.34 5.68 -2.68 4.36 -2 3 C-1.34 3.33 -0.68 3.66 0 4 C0 2.68 0 1.36 0 0 Z " fill="#BC9BA6" transform="translate(24,0)"/>
<path d="M0 0 C0.33 0 0.66 0 1 0 C1 1.65 1 3.3 1 5 C0.01 5.495 0.01 5.495 -1 6 C-1.99 7.485 -1.99 7.485 -3 9 C-3.66 7.35 -4.32 5.7 -5 4 C-4.360625 3.525625 -3.72125 3.05125 -3.0625 2.5625 C-1.11706694 1.16261274 -1.11706694 1.16261274 0 0 Z " fill="#221722" transform="translate(1166,16)"/>
<path d="M0 0 C0.33 0.99 0.66 1.98 1 3 C0.01 3.33 -0.98 3.66 -2 4 C-3.66710346 5.49985609 -3.66710346 5.49985609 -5 7 C-5 5.02 -5 3.04 -5 1 C-3 0 -3 0 0 0 Z " fill="#6D9185" transform="translate(16,1075)"/>
<path d="M0 0 C0.99 0.33 1.98 0.66 3 1 C3 3.64 3 6.28 3 9 C2.01 8.67 1.02 8.34 0 8 C0 5.36 0 2.72 0 0 Z " fill="#30610C" transform="translate(0,1065)"/>
<path d="M0 0 C1.5 1.3125 1.5 1.3125 3 3 C3 3.99 3 4.98 3 6 C1.68 6 0.36 6 -1 6 C-0.67 4.02 -0.34 2.04 0 0 Z M3 0 C4.485 0.99 4.485 0.99 6 2 C5.01 2.33 4.02 2.66 3 3 C3 2.01 3 1.02 3 0 Z " fill="#001824" transform="translate(9,9)"/>
<path d="M0 0 C0.99 0.33 1.98 0.66 3 1 C3.33 1.99 3.66 2.98 4 4 C2.35 4.66 0.7 5.32 -1 6 C-1.625 4.125 -1.625 4.125 -2 2 C-1.34 1.34 -0.68 0.68 0 0 Z " fill="#665933" transform="translate(1150,1075)"/>
<path d="M0 0 C0.928125 0.515625 1.85625 1.03125 2.8125 1.5625 C2.8125 1.8925 2.8125 2.2225 2.8125 2.5625 C0.1725 2.5625 -2.4675 2.5625 -5.1875 2.5625 C-5.5175 1.5725 -5.8475 0.5825 -6.1875 -0.4375 C-3.1875 -1.4375 -3.1875 -1.4375 0 0 Z " fill="#8C8C72" transform="translate(16.1875,7.4375)"/>
<path d="M0 0 C0.33 1.32 0.66 2.64 1 4 C-0.98 4.33 -2.96 4.66 -5 5 C-4 2 -4 2 -1.9375 0.8125 C-1.298125 0.544375 -0.65875 0.27625 0 0 Z " fill="#505035" transform="translate(25,1081)"/>
<path d="M0 0 C1.98 0.66 3.96 1.32 6 2 C4.68 3.32 3.36 4.64 2 6 C2 5.34 2 4.68 2 4 C1.34 3.67 0.68 3.34 0 3 C0 2.01 0 1.02 0 0 Z " fill="#5A6969" transform="translate(0,1073)"/>
<path d="M0 0 C1.98 0.99 3.96 1.98 6 3 C6 3.66 6 4.32 6 5 C4.35 5 2.7 5 1 5 C0.67 3.35 0.34 1.7 0 0 Z " fill="#2D0F4B" transform="translate(1,1063)"/>
</svg>
