<?xml version="1.0" encoding="UTF-8"?>
<svg version="1.1" xmlns="http://www.w3.org/2000/svg" width="736" height="607">
<path d="M0 0 C19.21504607 6.44125307 36.75915742 15.90824614 53 28 C53.59329102 28.43779785 54.18658203 28.8755957 54.79785156 29.32666016 C100.74234784 63.48759554 130.31485835 114.08811464 139.78125 170.39453125 C140.28457135 173.92888337 140.6856494 177.44416395 141 181 C141.10957031 182.23621094 141.21914063 183.47242188 141.33203125 184.74609375 C145.83018493 243.34204242 127.12376506 300.19209767 89.25 344.9375 C59.65084126 379.31423313 20.09646206 403.33743611 -24 414 C-25.22033936 414.29729004 -25.22033936 414.29729004 -26.46533203 414.60058594 C-80.54031573 427.40923996 -139.29242897 417.63573663 -186.8828125 389.140625 C-208.11220089 375.93859185 -227.40108346 359.51242564 -243 340 C-243.64710938 339.23171875 -244.29421875 338.4634375 -244.9609375 337.671875 C-274.39213711 302.35443547 -291.46357646 254.68770798 -291.0703125 208.80859375 C-291.06523682 207.66612183 -291.06016113 206.5236499 -291.05493164 205.34655762 C-291.04183181 202.56429909 -291.02343611 199.78218734 -291 197 C-233.87327406 197.99548313 -233.87327406 197.99548313 -212 199 C-211.94392578 200.76150391 -211.94392578 200.76150391 -211.88671875 202.55859375 C-210.63896655 235.31208896 -200.85121001 266.95300059 -179 292 C-178.20207031 292.94230469 -177.40414062 293.88460938 -176.58203125 294.85546875 C-155.26427349 319.49458778 -124.26058126 335.07024081 -92 339 C-91.08992187 339.11085938 -90.17984375 339.22171875 -89.2421875 339.3359375 C-54.37108041 343.01180919 -18.08157067 333.03267923 9.5234375 311.2734375 C12.78076768 308.62129435 15.90750447 305.84141335 19 303 C19.87140625 302.21109375 20.7428125 301.4221875 21.640625 300.609375 C47.80648487 275.76003638 60.09552613 241.17767306 62.1875 205.83203125 C62.98746177 169.58376369 48.28988755 133.88064673 23.58935547 107.6171875 C9.14031453 92.68788404 -8.38692059 82.85008817 -27 74 C-26.3722971 70.48661794 -25.46647476 67.26166837 -24.23754883 63.9128418 C-23.69611992 62.42925423 -23.69611992 62.42925423 -23.14375305 60.91569519 C-22.75213486 59.85425797 -22.36051666 58.79282074 -21.95703125 57.69921875 C-21.55095139 56.59004593 -21.14487152 55.48087311 -20.72648621 54.33808899 C-19.42523426 50.78663132 -18.1188699 47.23707782 -16.8125 43.6875 C-15.95215272 41.34061253 -15.09212336 38.99360849 -14.23242188 36.64648438 C-11.8306485 30.09431095 -9.41736298 23.54643513 -7 17 C-6.67094666 16.10669983 -6.34189331 15.21339966 -6.00286865 14.29302979 C-5.15467916 11.99239391 -4.30283157 9.69315932 -3.44921875 7.39453125 C-2.76412231 5.54565308 -2.76412231 5.54565308 -2.06518555 3.65942383 C-1 1 -1 1 0 0 Z " fill="#21132F" transform="translate(573,166)"/>
<path d="M0 0 C0.61488281 0.44666016 1.22976563 0.89332031 1.86328125 1.35351562 C31.82129855 23.38146952 54.3661515 52.41323805 70 86 C70.53238281 87.13566406 71.06476563 88.27132812 71.61328125 89.44140625 C94.7552637 141.04742914 94.52670752 200.73093832 75.1875 253.41796875 C71.00402947 264.36154735 65.90753867 274.88799686 60 285 C56.55738685 284.33314033 53.9620924 282.97900398 50.94140625 281.21875 C49.92949219 280.632146 48.91757812 280.04554199 47.875 279.44116211 C46.781875 278.80057861 45.68875 278.15999512 44.5625 277.5 C43.42683594 276.83943604 42.29117187 276.17887207 41.12109375 275.49829102 C38.05099885 273.71187411 34.9848256 271.91883359 31.91973877 270.12384033 C29.98085724 268.98879357 28.04110017 267.85525743 26.10107422 266.72216797 C2.40249494 252.87952695 2.40249494 252.87952695 -9 246 C-7.65893309 242.5884186 -6.19351196 239.28695065 -4.58886719 235.99023438 C12.00018116 201.6618678 13.33382962 163.25301902 0.88867188 127.36181641 C-1.52032299 120.95944928 -4.68832657 114.97189716 -8 109 C-8.86625 107.38158203 -8.86625 107.38158203 -9.75 105.73046875 C-13.77039207 98.48073398 -18.56628539 92.24279564 -24 86 C-25.06541016 84.73349609 -25.06541016 84.73349609 -26.15234375 83.44140625 C-48.71334998 57.29022181 -82.88909153 41.85928122 -117 39 C-142.66897258 37.62833501 -167.18154242 42.0671295 -190 54 C-190.59941406 54.31340332 -191.19882813 54.62680664 -191.81640625 54.94970703 C-223.46662391 71.7574765 -246.75605371 99.33517403 -257.79345703 133.45263672 C-268.73642174 169.5953977 -265.42205861 207.48592897 -248 241 C-243.75221162 248.56102652 -238.83420565 255.60270732 -233.1171875 262.1328125 C-232 264 -232 264 -231.9375 265.90234375 C-233.59314756 269.1710303 -236.33139616 271.16788402 -239.125 273.4375 C-240.40938241 274.50848141 -241.69321855 275.5801182 -242.9765625 276.65234375 C-243.64204102 277.20390137 -244.30751953 277.75545898 -244.99316406 278.32373047 C-248.20165903 281.00372152 -251.34887186 283.75303201 -254.5 286.5 C-261.04436252 292.1824386 -267.6189204 297.82891066 -274.20458984 303.46337891 C-277.42972364 306.22364435 -280.65216955 308.98704598 -283.875 311.75 C-285.05988485 312.76563781 -286.24477962 313.78126405 -287.4296875 314.796875 C-288.27789062 315.52390625 -289.12609375 316.2509375 -290 317 C-294.5917271 315.43685886 -296.81066141 311.75494545 -299.5625 308 C-300.34705566 306.93845703 -300.34705566 306.93845703 -301.14746094 305.85546875 C-336.07193493 257.83168873 -350.49130458 198.99704103 -341.54785156 140.23339844 C-334.61149148 99.29527324 -316.33495182 60.89989503 -288.15234375 30.33984375 C-286.03283386 28.03569416 -283.98564658 25.68004566 -281.9375 23.3125 C-278.22783414 19.15361679 -274.30492829 15.53224885 -270 12 C-269.48050781 11.56816406 -268.96101563 11.13632813 -268.42578125 10.69140625 C-192.04903612 -52.64122061 -81.02624786 -59.12509373 0 0 Z " fill="#A23FFE" transform="translate(423,120)"/>
<path d="M0 0 C19.21504607 6.44125307 36.75915742 15.90824614 53 28 C53.88993652 28.65669678 53.88993652 28.65669678 54.79785156 29.32666016 C100.09228364 63.0042558 131.12651234 114.00203815 139.66015625 169.953125 C140.07652207 173.68605995 140.06582241 177.24812251 140 181 C130.6493413 182.40062832 121.31011356 183.56187925 111.90234375 184.5078125 C110.62444473 184.63815887 109.34654572 184.76850525 108.02992249 184.90280151 C105.35712547 185.17514847 102.68413808 185.44551333 100.01098633 185.71435547 C96.59467811 186.05808067 93.1788884 186.40668869 89.76322079 186.75671577 C86.47651351 187.09290981 83.18941646 187.42521013 79.90234375 187.7578125 C78.68151596 187.88278107 77.46068817 188.00774963 76.2028656 188.13650513 C75.06720657 188.25017426 73.93154755 188.36384338 72.76147461 188.48095703 C71.2692765 188.63179245 71.2692765 188.63179245 69.74693298 188.78567505 C67.15070708 188.98824133 64.60273668 189.03945649 62 189 C61.88519287 188.40276123 61.77038574 187.80552246 61.65209961 187.19018555 C54.29434644 149.5962723 37.70261296 113.73500152 4.97558594 91.6328125 C-5.27617423 84.95510278 -15.95910516 79.24968978 -27 74 C-26.3722971 70.48661794 -25.46647476 67.26166837 -24.23754883 63.9128418 C-23.87659622 62.92378342 -23.51564362 61.93472504 -23.14375305 60.91569519 C-22.55632576 59.32353935 -22.55632576 59.32353935 -21.95703125 57.69921875 C-21.55095139 56.59004593 -21.14487152 55.48087311 -20.72648621 54.33808899 C-19.42523426 50.78663132 -18.1188699 47.23707782 -16.8125 43.6875 C-15.95215272 41.34061253 -15.09212336 38.99360849 -14.23242188 36.64648438 C-11.8306485 30.09431095 -9.41736298 23.54643513 -7 17 C-6.67094666 16.10669983 -6.34189331 15.21339966 -6.00286865 14.29302979 C-5.15467916 11.99239391 -4.30283157 9.69315932 -3.44921875 7.39453125 C-2.99248779 6.1619458 -2.53575684 4.92936035 -2.06518555 3.65942383 C-1 1 -1 1 0 0 Z " fill="#A23FFE" transform="translate(573,166)"/>
<path d="M0 0 C8.27277451 3.05432677 16.38551828 6.40598228 24.47436523 9.91210938 C30.88492832 12.68363775 37.32055309 15.38978282 43.76953125 18.0703125 C46.38669252 19.16110463 49.0036735 20.25232846 51.62063599 21.34359741 C53.373473 22.07283571 55.12728054 22.79974555 56.88204956 23.52432251 C59.36661399 24.55059075 61.84763477 25.58502472 64.328125 26.62109375 C65.08756912 26.932211 65.84701324 27.24332825 66.62947083 27.56387329 C71.88626145 29.77252291 71.88626145 29.77252291 73 32 C72.1483596 34.7678313 71.23196215 37.46617405 70.25 40.1875 C58.13329722 75.07675405 61.19682475 112.45349881 76.82421875 145.6953125 C81.36159083 154.92658879 87.10722075 163.39358104 93.8828125 171.1328125 C95 173 95 173 95.0625 174.90234375 C93.40685244 178.1710303 90.66860384 180.16788402 87.875 182.4375 C86.59061759 183.50848141 85.30678145 184.5801182 84.0234375 185.65234375 C83.35795898 186.20390137 82.69248047 186.75545898 82.00683594 187.32373047 C78.79834097 190.00372152 75.65112814 192.75303201 72.5 195.5 C65.95563748 201.1824386 59.3810796 206.82891066 52.79541016 212.46337891 C49.57027636 215.22364435 46.34783045 217.98704598 43.125 220.75 C41.94011515 221.76563781 40.75522038 222.78126405 39.5703125 223.796875 C38.72210938 224.52390625 37.87390625 225.2509375 37 226 C32.4082729 224.43685886 30.18933859 220.75494545 27.4375 217 C26.65294434 215.93845703 26.65294434 215.93845703 25.85253906 214.85546875 C-9.07193493 166.83168873 -23.49130458 107.99704103 -14.54785156 49.23339844 C-11.72516877 32.57403528 -7.60211368 15.20422737 0 0 Z " fill="#22132F" transform="translate(96,211)"/>
</svg>
