<?xml version="1.0" encoding="UTF-8"?>
<svg version="1.1" xmlns="http://www.w3.org/2000/svg" width="1740" height="607">
<path d="M0 0 C19.21504607 6.44125307 36.75915742 15.90824614 53 28 C53.59329102 28.43779785 54.18658203 28.8755957 54.79785156 29.32666016 C100.74234784 63.48759554 130.31485835 114.08811464 139.78125 170.39453125 C140.28457135 173.92888337 140.6856494 177.44416395 141 181 C141.10957031 182.23621094 141.21914063 183.47242188 141.33203125 184.74609375 C145.83018493 243.34204242 127.12376506 300.19209767 89.25 344.9375 C59.65084126 379.31423313 20.09646206 403.33743611 -24 414 C-25.22033936 414.29729004 -25.22033936 414.29729004 -26.46533203 414.60058594 C-80.54031573 427.40923996 -139.29242897 417.63573663 -186.8828125 389.140625 C-208.11220089 375.93859185 -227.40108346 359.51242564 -243 340 C-243.64710938 339.23171875 -244.29421875 338.4634375 -244.9609375 337.671875 C-274.39213711 302.35443547 -291.46357646 254.68770798 -291.0703125 208.80859375 C-291.06523682 207.66612183 -291.06016113 206.5236499 -291.05493164 205.34655762 C-291.04183181 202.56429909 -291.02343611 199.78218734 -291 197 C-233.87327406 197.99548313 -233.87327406 197.99548313 -212 199 C-211.94392578 200.76150391 -211.94392578 200.76150391 -211.88671875 202.55859375 C-210.63896655 235.31208896 -200.85121001 266.95300059 -179 292 C-178.20207031 292.94230469 -177.40414062 293.88460938 -176.58203125 294.85546875 C-155.26427349 319.49458778 -124.26058126 335.07024081 -92 339 C-91.08992187 339.11085938 -90.17984375 339.22171875 -89.2421875 339.3359375 C-54.37108041 343.01180919 -18.08157067 333.03267923 9.5234375 311.2734375 C12.78076768 308.62129435 15.90750447 305.84141335 19 303 C19.87140625 302.21109375 20.7428125 301.4221875 21.640625 300.609375 C47.80648487 275.76003638 60.09552613 241.17767306 62.1875 205.83203125 C62.98746177 169.58376369 48.28988755 133.88064673 23.58935547 107.6171875 C9.14031453 92.68788404 -8.38692059 82.85008817 -27 74 C-26.3722971 70.48661794 -25.46647476 67.26166837 -24.23754883 63.9128418 C-23.69611992 62.42925423 -23.69611992 62.42925423 -23.14375305 60.91569519 C-22.75213486 59.85425797 -22.36051666 58.79282074 -21.95703125 57.69921875 C-21.55095139 56.59004593 -21.14487152 55.48087311 -20.72648621 54.33808899 C-19.42523426 50.78663132 -18.1188699 47.23707782 -16.8125 43.6875 C-15.95215272 41.34061253 -15.09212336 38.99360849 -14.23242188 36.64648438 C-11.8306485 30.09431095 -9.41736298 23.54643513 -7 17 C-6.67094666 16.10669983 -6.34189331 15.21339966 -6.00286865 14.29302979 C-5.15467916 11.99239391 -4.30283157 9.69315932 -3.44921875 7.39453125 C-2.76412231 5.54565308 -2.76412231 5.54565308 -2.06518555 3.65942383 C-1 1 -1 1 0 0 Z " fill="#515151" transform="translate(573,166)"/>
<path d="M0 0 C0.61488281 0.44666016 1.22976563 0.89332031 1.86328125 1.35351562 C31.82129855 23.38146952 54.3661515 52.41323805 70 86 C70.53238281 87.13566406 71.06476563 88.27132812 71.61328125 89.44140625 C94.7552637 141.04742914 94.52670752 200.73093832 75.1875 253.41796875 C71.00402947 264.36154735 65.90753867 274.88799686 60 285 C56.55738685 284.33314033 53.9620924 282.97900398 50.94140625 281.21875 C49.92949219 280.632146 48.91757812 280.04554199 47.875 279.44116211 C46.781875 278.80057861 45.68875 278.15999512 44.5625 277.5 C43.42683594 276.83943604 42.29117187 276.17887207 41.12109375 275.49829102 C38.05099885 273.71187411 34.9848256 271.91883359 31.91973877 270.12384033 C29.98085724 268.98879357 28.04110017 267.85525743 26.10107422 266.72216797 C2.40249494 252.87952695 2.40249494 252.87952695 -9 246 C-7.65893309 242.5884186 -6.19351196 239.28695065 -4.58886719 235.99023438 C12.00018116 201.6618678 13.33382962 163.25301902 0.88867188 127.36181641 C-1.52032299 120.95944928 -4.68832657 114.97189716 -8 109 C-8.86625 107.38158203 -8.86625 107.38158203 -9.75 105.73046875 C-13.77039207 98.48073398 -18.56628539 92.24279564 -24 86 C-25.06541016 84.73349609 -25.06541016 84.73349609 -26.15234375 83.44140625 C-48.71334998 57.29022181 -82.88909153 41.85928122 -117 39 C-142.66897258 37.62833501 -167.18154242 42.0671295 -190 54 C-190.59941406 54.31340332 -191.19882813 54.62680664 -191.81640625 54.94970703 C-223.46662391 71.7574765 -246.75605371 99.33517403 -257.79345703 133.45263672 C-268.73642174 169.5953977 -265.42205861 207.48592897 -248 241 C-243.75221162 248.56102652 -238.83420565 255.60270732 -233.1171875 262.1328125 C-232 264 -232 264 -231.9375 265.90234375 C-233.59314756 269.1710303 -236.33139616 271.16788402 -239.125 273.4375 C-240.40938241 274.50848141 -241.69321855 275.5801182 -242.9765625 276.65234375 C-243.64204102 277.20390137 -244.30751953 277.75545898 -244.99316406 278.32373047 C-248.20165903 281.00372152 -251.34887186 283.75303201 -254.5 286.5 C-261.04436252 292.1824386 -267.6189204 297.82891066 -274.20458984 303.46337891 C-277.42972364 306.22364435 -280.65216955 308.98704598 -283.875 311.75 C-285.05988485 312.76563781 -286.24477962 313.78126405 -287.4296875 314.796875 C-288.27789062 315.52390625 -289.12609375 316.2509375 -290 317 C-294.5917271 315.43685886 -296.81066141 311.75494545 -299.5625 308 C-300.34705566 306.93845703 -300.34705566 306.93845703 -301.14746094 305.85546875 C-336.07193493 257.83168873 -350.49130458 198.99704103 -341.54785156 140.23339844 C-334.61149148 99.29527324 -316.33495182 60.89989503 -288.15234375 30.33984375 C-286.03283386 28.03569416 -283.98564658 25.68004566 -281.9375 23.3125 C-278.22783414 19.15361679 -274.30492829 15.53224885 -270 12 C-269.48050781 11.56816406 -268.96101563 11.13632813 -268.42578125 10.69140625 C-192.04903612 -52.64122061 -81.02624786 -59.12509373 0 0 Z " fill="#FEFEFE" transform="translate(423,120)"/>
<path d="M0 0 C11.12969798 10.4247459 16.98893421 24.06590151 18.59765625 39.03125 C18.59765625 40.68125 18.59765625 42.33125 18.59765625 44.03125 C4.07765625 44.03125 -10.44234375 44.03125 -25.40234375 44.03125 C-26.39234375 40.73125 -27.38234375 37.43125 -28.40234375 34.03125 C-33.28512297 25.81388984 -39.49964946 22.1901479 -48.65234375 19.71875 C-60.70699423 17.50766772 -73.7403121 18.33544557 -84.40234375 24.71875 C-89.53385858 28.51849238 -91.85263087 32.41054496 -92.80859375 38.70703125 C-93.11944336 44.32563795 -92.49326187 48.67532928 -89.1171875 53.2578125 C-80.0862577 62.59731621 -65.92388524 64.94641183 -53.78125 67.91015625 C-53.09401855 68.07870117 -52.40678711 68.24724609 -51.69873047 68.42089844 C-48.23254293 69.2694173 -44.76414092 70.10430848 -41.28857422 70.91357422 C-19.46234949 76.1001375 1.59440372 85.06681907 14.203125 104.578125 C21.90292614 118.12287323 23.146234 133.35797161 19.84375 148.484375 C15.06936488 165.34454671 5.47769186 177.41992281 -9.74609375 186.24609375 C-25.50292755 194.33022487 -42.42762064 196.45629105 -59.90234375 196.40625 C-60.65046326 196.40537384 -61.39858276 196.40449768 -62.16937256 196.40359497 C-87.39955027 196.30630464 -109.84699025 191.07546549 -128.65234375 173.21875 C-140.82793246 160.50964567 -145.40234375 144.40107391 -145.40234375 127.03125 C-130.88234375 127.03125 -116.36234375 127.03125 -101.40234375 127.03125 C-100.41234375 130.99125 -99.42234375 134.95125 -98.40234375 139.03125 C-93.60719117 148.1537354 -87.44860177 152.43844705 -77.76171875 155.671875 C-72.26558933 157.25458884 -67.09327491 157.47798443 -61.40234375 157.40625 C-60.02175781 157.42365234 -60.02175781 157.42365234 -58.61328125 157.44140625 C-48.35641869 157.39806739 -38.42052586 154.83504394 -30.8671875 147.55078125 C-26.40402436 142.48905978 -24.89206592 138.00492131 -25.1015625 131.3671875 C-25.7389593 126.41701495 -27.51583829 122.75512568 -31.21484375 119.375 C-43.35546044 110.62661444 -58.9870275 107.92873557 -73.24682617 104.48168945 C-95.50826955 99.07210481 -118.64608153 92.2417407 -132.77734375 72.71875 C-140.77888831 59.35253351 -141.96613034 42.632811 -138.51953125 27.49609375 C-136.34556552 19.75966931 -132.60064613 13.11806378 -127.40234375 7.03125 C-126.69464844 6.20109375 -125.98695313 5.3709375 -125.2578125 4.515625 C-94.359699 -28.89328047 -33.92175789 -27.79929427 0 0 Z " fill="#FFFFFF" transform="translate(942.40234375,238.96875)"/>
<path d="M0 0 C15.51 0 31.02 0 47 0 C60.48222533 46.46786401 60.48222533 46.46786401 66.74609375 68.96484375 C66.94066351 69.66364088 67.13523327 70.36243801 67.33569908 71.08241081 C69.25448302 77.97676434 71.16769738 84.87264865 73.07465076 91.7702837 C73.61372954 93.71942772 74.15372392 95.66831844 74.69374084 97.61720276 C75.35699752 100.01141578 76.01849025 102.40611837 76.67796326 104.80137634 C77.11653404 106.38396996 77.11653404 106.38396996 77.56396484 107.99853516 C77.94577408 109.38209702 77.94577408 109.38209702 78.33529663 110.79360962 C78.93574611 113.01332559 78.93574611 113.01332559 80 115 C80.35443176 113.75100418 80.70886353 112.50200836 81.07403564 111.21516418 C84.42657823 99.40172275 87.78063379 87.58871178 91.13614273 75.77611256 C92.86088231 69.70422636 94.58510233 63.63219365 96.30810547 57.55981445 C97.97322462 51.69151042 99.63974709 45.82360653 101.30721283 39.95596886 C101.94077528 37.72561304 102.57384561 35.49511736 103.20639801 33.26447487 C104.0975294 30.12230687 104.99046478 26.98065648 105.88378906 23.83911133 C106.14057938 22.93207458 106.39736969 22.02503784 106.66194153 21.09051514 C108.67438791 14.02410764 110.83769374 7.02749533 113 0 C128.51 0 144.02 0 160 0 C159.29659667 3.51701664 158.56771062 6.51374006 157.41210938 9.85473633 C156.9228875 11.2764489 156.9228875 11.2764489 156.42378235 12.72688293 C155.88916634 14.26393135 155.88916634 14.26393135 155.34375 15.83203125 C154.97005783 16.91413376 154.59636566 17.99623627 154.21134949 19.11112976 C152.97772632 22.67947315 151.73905421 26.24603914 150.5 29.8125 C149.85036617 31.68764454 149.20073361 33.56278952 148.55128384 35.43799782 C142.33084688 53.39432227 136.02351415 71.31929159 129.65087891 89.22216797 C125.73846375 100.22165027 121.86518735 111.23388698 118.03598213 122.26256943 C117.29330796 124.40136688 116.55004735 126.53995969 115.80662537 128.67849731 C112.87626752 137.10781282 112.87626752 137.10781282 109.9571228 145.54101562 C101.21308528 170.85731149 101.21308528 170.85731149 97.09765625 180.96875 C96.83653046 181.61577377 96.57540466 182.26279755 96.30636597 182.9294281 C93.76394587 188.98502265 90.23983111 194.02460364 86 199 C85.43152344 199.71414063 84.86304688 200.42828125 84.27734375 201.1640625 C80.19156781 205.81556127 75.51537379 208.60122913 70.0625 211.375 C69.07830078 211.87616333 69.07830078 211.87616333 68.07421875 212.38745117 C58.97588991 216.75343531 50.25132415 217.35958039 40.25 217.3125 C39.10144531 217.31048584 37.95289063 217.30847168 36.76953125 217.30639648 C28.28221645 217.20584444 19.745859 216.8729295 12 213 C14.50536237 202.18738347 17.75591404 191.60899531 21 181 C25.7265625 179.9453125 25.7265625 179.9453125 28.1875 180.4375 C34.6276072 181.72552144 41.31915789 181.99162075 47.16796875 178.65625 C51.15809465 175.048972 53.53829463 170.11291082 55 165 C54.59215473 158.10616147 52.52998852 152.07312577 50.23828125 145.59375 C49.66496315 143.94279327 49.66496315 143.94279327 49.08006287 142.25848389 C47.83172376 138.66965238 46.57222191 135.08485009 45.3125 131.5 C44.44039236 128.9999145 43.56897909 126.49958667 42.69824219 123.99902344 C40.53450281 117.79105354 38.36186182 111.58624645 36.18585205 105.38256836 C34.50380635 100.58463883 32.8279798 95.78454586 31.15234375 90.984375 C28.91380886 84.57507933 26.6698309 78.16771577 24.421875 71.76171875 C20.28401966 59.96907841 16.17206497 48.1674021 12.0604248 36.36560059 C11.45763789 34.6354192 10.85471499 32.90528518 10.25164795 31.17520142 C9.67386744 29.51758722 9.09642605 27.85985478 8.51934814 26.20199585 C7.10472769 22.1433422 5.67821873 18.0894453 4.23046875 14.04248047 C3.94961426 13.25530136 3.66875977 12.46812225 3.37939453 11.65708923 C2.84795533 10.1699112 2.31391282 8.68366001 1.77685547 7.19850159 C0 2.22204691 0 2.22204691 0 0 Z " fill="#FFFFFF" transform="translate(979,274)"/>
<path d="M0 0 C15.18 0 30.36 0 46 0 C47.84670483 4.92454622 49.51824111 9.51629109 50.91015625 14.53149414 C51.25516678 15.76764969 51.60017731 17.00380524 51.9556427 18.27742004 C52.32465064 19.61331678 52.69360143 20.94922931 53.0625 22.28515625 C53.45435818 23.69379152 53.84655226 25.10233339 54.23905945 26.51078796 C55.06832805 29.48893386 55.89545385 32.46766264 56.72079468 35.44689941 C58.00284478 40.07461999 59.28958935 44.70102598 60.57739258 49.32714844 C61.00649202 50.86874194 61.43558444 52.41033739 61.8646698 53.95193481 C62.18186509 55.09151831 62.18186509 55.09151831 62.50546837 56.25412369 C63.14331778 58.5464203 63.78069076 60.83884888 64.41792297 63.13131714 C67.81352166 75.34535333 71.23870667 87.55087167 74.6875 99.75 C75.14258016 101.36075789 75.59765836 102.97151633 76.05273438 104.58227539 C77.03419775 108.05512184 78.01667332 111.52768061 79 115 C83.61903641 100.28732044 87.88700705 85.48240195 92.08203125 70.64453125 C92.35284389 69.68716946 92.62365654 68.72980766 92.90267563 67.74343491 C95.45765592 58.70904033 98.00682938 49.67301099 100.55249023 40.63598633 C101.95771217 35.64834783 103.36680303 30.66181556 104.778265 25.67593956 C105.31125066 23.79011473 105.84271219 21.90385842 106.37259865 20.01716042 C107.10781725 17.39948141 107.84791256 14.78322726 108.58911133 12.16723633 C108.91248222 11.00871155 108.91248222 11.00871155 109.24238586 9.82678223 C110.24466882 6.30767807 111.35352556 3.29294888 113 0 C128.18 0 143.36 0 159 0 C157.87513458 7.87405793 157.87513458 7.87405793 156.67504883 11.20117188 C156.40487946 11.96087784 156.13471008 12.7205838 155.85635376 13.50331116 C155.55957733 14.31690598 155.2628009 15.13050079 154.95703125 15.96875 C154.64140228 16.85159164 154.32577332 17.73443329 154.00057983 18.64402771 C153.30954695 20.57512659 152.61557555 22.50517586 151.91903687 24.43429565 C149.97618895 29.81703299 148.05640396 35.20801422 146.1328125 40.59765625 C145.72018661 41.7518959 145.30756073 42.90613556 144.88243103 44.09535217 C140.38261144 56.69606314 135.97492348 69.32854329 131.57266235 81.96356201 C130.18356 85.94989898 128.79158643 89.93522982 127.39916992 93.92041016 C123.42016509 105.3108684 119.44457321 116.70239102 115.50308704 128.10589695 C113.69561346 133.33490992 111.88222904 138.56184818 110.06476879 143.78739834 C109.00224459 146.84359788 107.94413887 149.90121189 106.89242554 152.96115112 C99.49813421 174.46953626 99.49813421 174.46953626 94.7109375 184.71484375 C94.40213654 185.37588104 94.09333557 186.03691833 93.775177 186.71798706 C87.43354373 199.72895625 77.2307789 208.48583855 64 214 C55.83306202 216.6278033 48.10931077 217.48692646 39.5625 217.375 C37.93042603 217.36521118 37.93042603 217.36521118 36.26538086 217.35522461 C27.98097978 217.21709964 19.5513867 216.77569335 12 213 C12.58429572 208.30745612 13.48345586 203.93583691 14.84765625 199.41015625 C15.20537109 198.21455078 15.56308594 197.01894531 15.93164062 195.78710938 C16.49141602 193.94342773 16.49141602 193.94342773 17.0625 192.0625 C17.43955078 190.80630859 17.81660156 189.55011719 18.20507812 188.25585938 C19.13225057 185.16919668 20.06401838 182.0840006 21 179 C21.9914502 179.21112427 21.9914502 179.21112427 23.00292969 179.42651367 C30.3267925 180.94662387 37.14763342 182.35546232 44.375 179.8125 C49.63920489 176.17769186 52.42633592 171.43167049 54.52050781 165.46240234 C55.56667033 157.90808623 51.95015973 150.77218631 49.3125 143.8125 C48.65549602 141.99896373 48.0020164 140.18414735 47.35180664 138.36816406 C45.96937629 134.52273419 44.56804104 130.68499502 43.15136719 126.85205078 C40.00373734 118.32085798 36.99325302 109.74131815 33.96817017 101.16610718 C32.93094438 98.23145198 31.88845554 95.29871621 30.84448242 92.36645508 C23.93298264 72.93641972 17.22910335 53.43575332 10.5432291 33.92720413 C9.87870526 31.98841758 9.21378883 30.04976607 8.54878235 28.11114502 C7.73393636 25.73485881 6.9201348 23.3582141 6.10758972 20.98114014 C4.55287444 16.44612786 2.98984546 11.93320203 1.23193359 7.47265625 C0 4 0 4 0 0 Z " fill="#FFFFFF" transform="translate(1575,274)"/>
<path d="M0 0 C19.21504607 6.44125307 36.75915742 15.90824614 53 28 C53.88993652 28.65669678 53.88993652 28.65669678 54.79785156 29.32666016 C100.77918009 63.51498128 129.67130144 113.59466399 139.6640625 169.73046875 C140.05347232 173.52042246 140.02107338 177.19037396 140 181 C124.37143385 183.03599569 108.73154016 184.81823782 93.046875 186.36254883 C89.68189574 186.69421259 86.31749885 187.03139584 82.953125 187.36914062 C80.7969065 187.58365024 78.64065767 187.79785514 76.484375 188.01171875 C75.48662048 188.11167648 74.48886597 188.21163422 73.46087646 188.31462097 C72.53760559 188.40504166 71.61433472 188.49546234 70.66308594 188.58862305 C69.85611267 188.6683989 69.0491394 188.74817474 68.2177124 188.83036804 C66.15040915 188.98849526 64.07334198 189 62 189 C61.88519287 188.40276123 61.77038574 187.80552246 61.65209961 187.19018555 C54.29434644 149.5962723 37.70261296 113.73500152 4.97558594 91.6328125 C-5.27617423 84.95510278 -15.95910516 79.24968978 -27 74 C-26.3722971 70.48661794 -25.46647476 67.26166837 -24.23754883 63.9128418 C-23.87659622 62.92378342 -23.51564362 61.93472504 -23.14375305 60.91569519 C-22.55632576 59.32353935 -22.55632576 59.32353935 -21.95703125 57.69921875 C-21.55095139 56.59004593 -21.14487152 55.48087311 -20.72648621 54.33808899 C-19.42523426 50.78663132 -18.1188699 47.23707782 -16.8125 43.6875 C-15.95215272 41.34061253 -15.09212336 38.99360849 -14.23242188 36.64648438 C-11.8306485 30.09431095 -9.41736298 23.54643513 -7 17 C-6.67094666 16.10669983 -6.34189331 15.21339966 -6.00286865 14.29302979 C-5.15467916 11.99239391 -4.30283157 9.69315932 -3.44921875 7.39453125 C-2.99248779 6.1619458 -2.53575684 4.92936035 -2.06518555 3.65942383 C-1 1 -1 1 0 0 Z " fill="#FEFEFE" transform="translate(573,166)"/>
<path d="M0 0 C12.371431 4.55592371 24.44592434 9.81453618 36.5625 15 C39.69792486 16.33957382 42.83362906 17.6784898 45.96957397 19.0168457 C47.97006447 19.87105146 49.97009609 20.72633281 51.96963501 21.58276367 C56.00182549 23.30767805 60.03382293 25.02714642 64.10107422 26.66796875 C65.19049316 27.10753906 66.27991211 27.54710937 67.40234375 28 C68.29300537 28.350625 69.18366699 28.70125 70.10131836 29.0625 C72 30 72 30 73 32 C72.1483596 34.7678313 71.23196215 37.46617405 70.25 40.1875 C58.13329722 75.07675405 61.19682475 112.45349881 76.82421875 145.6953125 C81.36159083 154.92658879 87.10722075 163.39358104 93.8828125 171.1328125 C95 173 95 173 95.0625 174.90234375 C93.40685244 178.1710303 90.66860384 180.16788402 87.875 182.4375 C86.59061759 183.50848141 85.30678145 184.5801182 84.0234375 185.65234375 C83.35795898 186.20390137 82.69248047 186.75545898 82.00683594 187.32373047 C78.79834097 190.00372152 75.65112814 192.75303201 72.5 195.5 C65.95563748 201.1824386 59.3810796 206.82891066 52.79541016 212.46337891 C49.57027636 215.22364435 46.34783045 217.98704598 43.125 220.75 C41.94011515 221.76563781 40.75522038 222.78126405 39.5703125 223.796875 C38.72210938 224.52390625 37.87390625 225.2509375 37 226 C32.4082729 224.43685886 30.18933859 220.75494545 27.4375 217 C26.65294434 215.93845703 26.65294434 215.93845703 25.85253906 214.85546875 C-9.07193493 166.83168873 -23.49130458 107.99704103 -14.54785156 49.23339844 C-11.72516877 32.57403528 -7.60211368 15.20422737 0 0 Z " fill="#515151" transform="translate(96,211)"/>
<path d="M0 0 C11.65329364 12.29042257 15.42170718 28.23550346 15.36352539 44.68310547 C15.36367142 45.76662796 15.36381744 46.85015045 15.3639679 47.96650696 C15.36327284 51.53758771 15.35549947 55.10861589 15.34765625 58.6796875 C15.34579063 61.15975923 15.3443674 63.63983133 15.34336853 66.11990356 C15.33955474 72.63990297 15.32973414 79.15988002 15.31866455 85.67987061 C15.30788405 92.33605528 15.30386567 98.99224647 15.29882812 105.6484375 C15.28811087 118.70313639 15.27052326 131.75781284 15.25 144.8125 C0.73 144.8125 -13.79 144.8125 -28.75 144.8125 C-28.79898437 137.99851562 -28.84796875 131.18453125 -28.8984375 124.1640625 C-28.93384342 119.83462101 -28.96981466 115.50519888 -29.0078125 111.17578125 C-29.06800542 104.31138959 -29.12616065 97.44702487 -29.171875 90.58251953 C-29.20888248 85.04516865 -29.25528375 79.5079673 -29.30806351 73.97074509 C-29.32652553 71.86339326 -29.34166336 69.75600948 -29.35334396 67.64860916 C-29.37034729 64.68566993 -29.39941508 61.72306712 -29.43115234 58.76025391 C-29.43331253 57.89853577 -29.43547272 57.03681763 -29.43769836 56.14898682 C-29.56302709 46.92621724 -30.57319175 38.04199738 -36.75 30.8125 C-44.31928324 23.90534094 -50.79805624 23.35601982 -60.75 23.53125 C-67.20500676 23.83288583 -71.63138426 26.07052706 -76.5625 30.125 C-83.23019374 38.31673802 -85.0436374 46.2025413 -85.06884766 56.60327148 C-85.08391609 58.03857964 -85.08391609 58.03857964 -85.09928894 59.50288391 C-85.13002911 62.64644809 -85.14713063 65.78992745 -85.1640625 68.93359375 C-85.18278151 71.12078069 -85.20235547 73.30796047 -85.2227478 75.49513245 C-85.27399745 81.23745492 -85.3136616 86.9798008 -85.35089111 92.722229 C-85.39802964 99.61984892 -85.45959677 106.5173534 -85.51873779 113.41487885 C-85.60686264 123.88070578 -85.67668985 134.34651157 -85.75 144.8125 C-100.6 144.8125 -115.45 144.8125 -130.75 144.8125 C-130.77254556 124.3595124 -130.79097832 103.9065348 -130.80181217 83.45353794 C-130.8069755 73.95754617 -130.81401889 64.46156265 -130.82543945 54.96557617 C-130.83538517 46.69197155 -130.84185316 38.41837289 -130.84408849 30.14476246 C-130.84539579 25.7611641 -130.84848285 21.37758284 -130.85573006 16.99398994 C-130.86248851 12.872865 -130.86461732 8.75176427 -130.86310768 4.63063431 C-130.86338409 3.11363659 -130.86539025 1.5966381 -130.86920547 0.07964516 C-130.87414001 -1.98257301 -130.8729992 -4.04469826 -130.87025452 -6.10691833 C-130.87117631 -7.26376853 -130.8720981 -8.42061872 -130.87304783 -9.61252499 C-130.75 -12.1875 -130.75 -12.1875 -129.75 -13.1875 C-126.64748799 -13.27624135 -123.5673188 -13.30268455 -120.46484375 -13.28515625 C-119.53402481 -13.2837413 -118.60320587 -13.28232635 -117.6441803 -13.28086853 C-114.65858809 -13.27525172 -111.67306971 -13.2626964 -108.6875 -13.25 C-106.66862087 -13.24498716 -104.64974057 -13.24042388 -102.63085938 -13.23632812 C-97.67052129 -13.22612587 -92.7103437 -13.20655382 -87.75 -13.1875 C-87.42 -4.2775 -87.09 4.6325 -86.75 13.8125 C-84.77 10.1825 -82.79 6.5525 -80.75 2.8125 C-72.23518367 -7.17603454 -60.46420562 -13.024502 -47.5 -15 C-29.7184932 -16.29085349 -13.28411693 -12.41920782 0 0 Z " fill="#FFFFFF" transform="translate(1290.75,287.1875)"/>
<path d="M0 0 C5.08033314 4.87327444 8.78175243 10.07644148 12.125 16.25 C12.52332031 16.95382812 12.92164063 17.65765625 13.33203125 18.3828125 C16.96639721 25.54264957 19.125 35.20962744 19.125 43.25 C4.935 43.25 -9.255 43.25 -23.875 43.25 C-24.865 39.95 -25.855 36.65 -26.875 33.25 C-28.88052983 29.90593635 -28.88052983 29.90593635 -30.875 27.25 C-31.205 26.26 -31.535 25.27 -31.875 24.25 C-33.6467397 23.1129972 -33.6467397 23.1129972 -35.875 22.25 C-36.70515625 21.89679688 -37.5353125 21.54359375 -38.390625 21.1796875 C-47.94697874 17.49366534 -55.28499457 17.21853275 -64.875 21.25 C-73.25979249 25.88839585 -78.58952722 33.56025174 -81.28515625 42.66796875 C-85.17791876 59.70847219 -85.88278865 79.53841804 -76.76171875 95.15625 C-75.82848383 96.54083126 -74.85507638 97.89817051 -73.875 99.25 C-73.545 100.24 -73.215 101.23 -72.875 102.25 C-71.15980253 103.27651373 -71.15980253 103.27651373 -68.875 104.25 C-67.12574542 105.26700847 -65.38956005 106.30373088 -63.65625 107.34765625 C-57.41073954 110.51150036 -48.8446266 110.33049008 -42.234375 108.53125 C-35.15260687 105.54438181 -30.12537433 101.65833589 -26.83203125 94.60546875 C-25.44107182 91.18200533 -24.17248877 87.70997006 -22.875 84.25 C-9.015 84.25 4.845 84.25 19.125 84.25 C16.97051089 99.33142377 14.57445266 110.37194969 5.125 122.25 C4.01125 123.796875 4.01125 123.796875 2.875 125.375 C-10.89670343 139.77268995 -29.46097586 145.45759653 -48.90234375 146.18359375 C-71.47630889 146.56093633 -91.93895669 140.60771396 -108.47216797 124.68505859 C-124.55407147 108.23371352 -130.29068158 84.91988715 -130.17749023 62.51904297 C-129.60981198 40.64098714 -123.03815626 19.49430822 -107.875 3.25 C-79.35928276 -23.36783256 -29.92629719 -25.75623938 0 0 Z " fill="#FFFFFF" transform="translate(1462.875,289.75)"/>
<path d="M0 0 C14.52 0 29.04 0 44 0 C44 69.3 44 138.6 44 210 C29.48 210 14.96 210 0 210 C0 140.7 0 71.4 0 0 Z " fill="#FFFFFF" transform="translate(1509,222)"/>
</svg>
